<svg width="240px" height="41px" viewBox="0 0 240 41" fill="none" xmlns="http://www.w3.org/2000/svg" transform="rotate(0) scale(1, 1)">
<path d="M80.8274 16.5433H76.843C76.7294 15.8899 76.5199 15.3111 76.2145 14.8068C75.9091 14.2955 75.5291 13.8622 75.0746 13.5071C74.62 13.152 74.1016 12.8857 73.5192 12.7081C72.9439 12.5234 72.3224 12.4311 71.6548 12.4311C70.4688 12.4311 69.4176 12.7294 68.5014 13.326C67.5852 13.9155 66.8679 14.782 66.3494 15.9254C65.831 17.0618 65.5717 18.4503 65.5717 20.0909C65.5717 21.7599 65.831 23.1662 66.3494 24.3097C66.875 25.446 67.5923 26.3054 68.5014 26.8878C69.4176 27.4631 70.4652 27.7507 71.6442 27.7507C72.2976 27.7507 72.9084 27.6655 73.4766 27.495C74.0518 27.3175 74.5668 27.0582 75.0213 26.7173C75.483 26.3764 75.87 25.9574 76.1825 25.4602C76.5021 24.9631 76.7223 24.3949 76.843 23.7557L80.8274 23.777C80.6783 24.8139 80.3551 25.7869 79.858 26.696C79.3679 27.6051 78.7251 28.4077 77.9297 29.1037C77.1342 29.7926 76.2038 30.3324 75.1385 30.723C74.0732 31.1065 72.8906 31.2983 71.5909 31.2983C69.6733 31.2983 67.9616 30.8544 66.456 29.9666C64.9503 29.0788 63.7642 27.7969 62.8977 26.1207C62.0313 24.4446 61.598 22.4347 61.598 20.0909C61.598 17.7401 62.0348 15.7301 62.9084 14.0611C63.782 12.3849 64.9716 11.103 66.4773 10.2152C67.983 9.32741 69.6875 8.88352 71.5909 8.88352C72.8054 8.88352 73.9347 9.05398 74.9787 9.39489C76.0227 9.7358 76.9531 10.2365 77.7699 10.897C78.5866 11.5504 79.2578 12.353 79.7834 13.3047C80.3161 14.2493 80.6641 15.3288 80.8274 16.5433ZM91.4142 31.3196C89.8162 31.3196 88.4313 30.968 87.2594 30.2649C86.0875 29.5618 85.1784 28.5781 84.5321 27.3139C83.8929 26.0497 83.5733 24.5724 83.5733 22.8821C83.5733 21.1918 83.8929 19.7109 84.5321 18.4396C85.1784 17.1683 86.0875 16.1811 87.2594 15.478C88.4313 14.7749 89.8162 14.4233 91.4142 14.4233C93.0123 14.4233 94.3972 14.7749 95.5691 15.478C96.7409 16.1811 97.6465 17.1683 98.2857 18.4396C98.932 19.7109 99.2551 21.1918 99.2551 22.8821C99.2551 24.5724 98.932 26.0497 98.2857 27.3139C97.6465 28.5781 96.7409 29.5618 95.5691 30.2649C94.3972 30.968 93.0123 31.3196 91.4142 31.3196ZM91.4355 28.2301C92.302 28.2301 93.0265 27.9922 93.6088 27.5163C94.1912 27.0334 94.6245 26.3871 94.9086 25.5774C95.1998 24.7678 95.3453 23.8658 95.3453 22.8714C95.3453 21.87 95.1998 20.9645 94.9086 20.1548C94.6245 19.3381 94.1912 18.6882 93.6088 18.2053C93.0265 17.7223 92.302 17.4808 91.4355 17.4808C90.5478 17.4808 89.8091 17.7223 89.2196 18.2053C88.6373 18.6882 88.2005 19.3381 87.9093 20.1548C87.6252 20.9645 87.4831 21.87 87.4831 22.8714C87.4831 23.8658 87.6252 24.7678 87.9093 25.5774C88.2005 26.3871 88.6373 27.0334 89.2196 27.5163C89.8091 27.9922 90.5478 28.2301 91.4355 28.2301ZM106.385 9.18182V31H102.528V9.18182H106.385ZM114.207 9.18182V31H110.351V9.18182H114.207ZM122.882 31.3303C121.845 31.3303 120.911 31.1456 120.08 30.7763C119.256 30.3999 118.603 29.8459 118.12 29.1143C117.644 28.3828 117.406 27.4808 117.406 26.4084C117.406 25.4851 117.576 24.7216 117.917 24.1179C118.258 23.5142 118.723 23.0312 119.313 22.669C119.902 22.3068 120.566 22.0334 121.305 21.8487C122.051 21.657 122.821 21.5185 123.617 21.4332C124.576 21.3338 125.353 21.245 125.95 21.1669C126.547 21.0817 126.98 20.9538 127.25 20.7834C127.527 20.6058 127.665 20.3324 127.665 19.9631V19.8991C127.665 19.0966 127.427 18.4751 126.951 18.0348C126.475 17.5945 125.79 17.3743 124.895 17.3743C123.951 17.3743 123.201 17.5803 122.647 17.9922C122.1 18.4041 121.731 18.8906 121.539 19.4517L117.939 18.9403C118.223 17.946 118.691 17.1151 119.345 16.4474C119.998 15.7727 120.797 15.2685 121.742 14.9347C122.686 14.5938 123.73 14.4233 124.874 14.4233C125.662 14.4233 126.447 14.5156 127.228 14.7003C128.01 14.8849 128.723 15.1903 129.37 15.6165C130.016 16.0355 130.534 16.6072 130.925 17.3317C131.323 18.0561 131.522 18.9616 131.522 20.0483V31H127.814V28.7521H127.686C127.452 29.2067 127.122 29.6328 126.696 30.0305C126.277 30.4212 125.748 30.7372 125.108 30.9787C124.476 31.2131 123.734 31.3303 122.882 31.3303ZM123.883 28.4964C124.657 28.4964 125.328 28.3437 125.897 28.0384C126.465 27.7259 126.902 27.3139 127.207 26.8026C127.52 26.2912 127.676 25.7337 127.676 25.13V23.2017C127.555 23.3011 127.349 23.3935 127.058 23.4787C126.774 23.5639 126.454 23.6385 126.099 23.7024C125.744 23.7663 125.392 23.8232 125.044 23.8729C124.696 23.9226 124.395 23.9652 124.139 24.0007C123.564 24.0788 123.049 24.2067 122.594 24.3842C122.14 24.5618 121.781 24.8104 121.518 25.13C121.255 25.4425 121.124 25.8473 121.124 26.3445C121.124 27.0547 121.383 27.5909 121.902 27.9531C122.42 28.3153 123.081 28.4964 123.883 28.4964ZM135.57 31V9.18182H139.426V17.3423H139.586C139.785 16.9446 140.066 16.522 140.428 16.0746C140.79 15.62 141.28 15.233 141.898 14.9134C142.516 14.5866 143.304 14.4233 144.263 14.4233C145.527 14.4233 146.667 14.7464 147.683 15.3928C148.706 16.032 149.515 16.9801 150.112 18.2372C150.716 19.4872 151.017 21.0213 151.017 22.8395C151.017 24.6364 150.723 26.1634 150.133 27.4205C149.544 28.6776 148.741 29.6364 147.725 30.2969C146.71 30.9574 145.559 31.2876 144.274 31.2876C143.336 31.2876 142.559 31.1314 141.941 30.8189C141.323 30.5064 140.826 30.13 140.449 29.6896C140.08 29.2422 139.792 28.8196 139.586 28.4219H139.363V31H135.57ZM139.352 22.8182C139.352 23.8764 139.501 24.8033 139.799 25.5987C140.105 26.3942 140.542 27.0156 141.11 27.4631C141.685 27.9034 142.381 28.1236 143.198 28.1236C144.05 28.1236 144.764 27.8963 145.339 27.4418C145.914 26.9801 146.348 26.3516 146.639 25.5561C146.937 24.7536 147.086 23.8409 147.086 22.8182C147.086 21.8026 146.941 20.9006 146.65 20.1122C146.358 19.3239 145.925 18.706 145.35 18.2585C144.775 17.8111 144.057 17.5874 143.198 17.5874C142.374 17.5874 141.674 17.804 141.099 18.2372C140.524 18.6705 140.087 19.2777 139.789 20.0589C139.498 20.8402 139.352 21.7599 139.352 22.8182ZM172.396 9.18182V31H168.881L158.6 16.1385H158.419V31H154.466V9.18182H158.003L168.273 24.054H168.465V9.18182H172.396ZM183.777 31.3196C182.136 31.3196 180.719 30.9787 179.526 30.2969C178.34 29.608 177.427 28.6349 176.788 27.3778C176.149 26.1136 175.829 24.6257 175.829 22.9141C175.829 21.2308 176.149 19.7536 176.788 18.4822C177.434 17.2038 178.336 16.2095 179.494 15.4993C180.652 14.782 182.012 14.4233 183.574 14.4233C184.583 14.4233 185.534 14.5866 186.429 14.9134C187.331 15.233 188.127 15.7301 188.816 16.4048C189.512 17.0795 190.059 17.9389 190.456 18.983C190.854 20.0199 191.053 21.2557 191.053 22.6903V23.8729H177.64V21.2734H187.356C187.349 20.5348 187.189 19.8778 186.877 19.3026C186.564 18.7202 186.127 18.2621 185.566 17.9283C185.012 17.5945 184.366 17.4276 183.627 17.4276C182.839 17.4276 182.147 17.6193 181.55 18.0028C180.953 18.3793 180.488 18.8764 180.154 19.4943C179.828 20.1051 179.661 20.7763 179.654 21.5078V23.777C179.654 24.7287 179.828 25.5455 180.176 26.2273C180.524 26.902 181.01 27.4205 181.635 27.7827C182.26 28.1378 182.992 28.3153 183.83 28.3153C184.391 28.3153 184.899 28.2372 185.353 28.081C185.808 27.9176 186.202 27.6797 186.536 27.3672C186.87 27.0547 187.122 26.6676 187.292 26.206L190.893 26.6108C190.666 27.5625 190.233 28.3935 189.593 29.1037C188.961 29.8068 188.152 30.3537 187.164 30.7443C186.177 31.1278 185.048 31.3196 183.777 31.3196ZM207.249 18.9616L203.733 19.3452C203.634 18.9901 203.46 18.6562 203.211 18.3438C202.97 18.0312 202.643 17.7791 202.231 17.5874C201.819 17.3956 201.315 17.2997 200.718 17.2997C199.916 17.2997 199.241 17.4737 198.694 17.8217C198.154 18.1697 197.888 18.6207 197.895 19.1747C197.888 19.6506 198.062 20.0376 198.417 20.3359C198.779 20.6342 199.376 20.8793 200.207 21.071L202.998 21.6676C204.546 22.0014 205.697 22.5305 206.45 23.255C207.21 23.9794 207.593 24.9276 207.6 26.0994C207.593 27.1293 207.291 28.0384 206.695 28.8267C206.105 29.608 205.285 30.2187 204.234 30.6591C203.183 31.0994 201.975 31.3196 200.612 31.3196C198.609 31.3196 196.997 30.9006 195.775 30.0625C194.553 29.2173 193.825 28.0419 193.591 26.5362L197.352 26.174C197.522 26.9126 197.884 27.4702 198.438 27.8466C198.992 28.223 199.713 28.4112 200.601 28.4112C201.517 28.4112 202.252 28.223 202.806 27.8466C203.367 27.4702 203.648 27.005 203.648 26.451C203.648 25.9822 203.467 25.5952 203.105 25.2898C202.749 24.9844 202.195 24.75 201.443 24.5866L198.651 24.0007C197.082 23.674 195.921 23.1236 195.168 22.3494C194.415 21.5682 194.042 20.581 194.049 19.3878C194.042 18.3793 194.316 17.5057 194.869 16.767C195.431 16.0213 196.208 15.446 197.203 15.0412C198.204 14.6293 199.358 14.4233 200.665 14.4233C202.583 14.4233 204.092 14.8317 205.193 15.6484C206.301 16.4652 206.986 17.5696 207.249 18.9616ZM218.952 14.6364V17.6193H209.545V14.6364H218.952ZM211.867 10.7159H215.724V26.0781C215.724 26.5966 215.802 26.9943 215.958 27.2713C216.121 27.5412 216.334 27.7259 216.597 27.8253C216.86 27.9247 217.151 27.9744 217.471 27.9744C217.712 27.9744 217.932 27.9567 218.131 27.9212C218.337 27.8857 218.493 27.8537 218.6 27.8253L219.25 30.8402C219.044 30.9112 218.749 30.9893 218.366 31.0746C217.989 31.1598 217.528 31.2095 216.981 31.2237C216.015 31.2521 215.145 31.1065 214.371 30.7869C213.596 30.4602 212.982 29.956 212.528 29.2741C212.08 28.5923 211.86 27.7401 211.867 26.7173V10.7159Z" fill="#000000"/>
<g clip-path="url(#clip0_7_43)">
<path d="M9.38136 23.784V27.7699C9.38136 29.5583 8.47202 30.4828 6.63818 30.4828H2.74318C0.924498 30.4828 0 29.5734 0 27.7699V23.784C0 21.9956 0.924498 21.0862 2.74318 21.0862H6.63818C8.47202 21.0862 9.38136 21.9956 9.38136 23.784Z" fill="#007aff"/>
<path d="M24.4764 4.62716V7.54089C20.0388 7.87713 16.406 11.7915 16.3718 16.6911H7.74455C5.92586 16.6911 5.00137 15.7817 5.00137 13.9934V4.62716C5.00137 2.83878 5.92586 1.92944 7.74455 1.92944H21.7332C23.5519 1.92944 24.4764 2.83878 24.4764 4.62716Z" fill="#007aff"/>
<path d="M47.2706 13.0082V24.2083C47.2706 25.9967 46.346 26.906 44.5274 26.906H38.829C36.9949 26.906 36.0706 26.0118 36.0706 24.2083V13.0082C36.0706 11.2047 36.9949 10.2953 38.829 10.2953H44.5274C46.346 10.2953 47.2706 11.2198 47.2706 13.0082Z" fill="#007aff"/>
<path d="M25.113 23.7385C28.523 23.7385 31.4178 20.6922 31.4178 16.7366C31.4178 12.8719 28.5078 9.93164 25.113 9.93164C21.703 9.93164 18.7931 12.9173 18.7931 16.7669C18.7931 20.6922 21.6878 23.7385 25.113 23.7385ZM14.3524 38.379H35.8281C37.4344 38.379 38.4348 37.6058 38.4348 36.3329C38.4348 32.2257 33.3121 26.5726 25.0978 26.5726C16.8683 26.5726 11.7457 32.2257 11.7457 36.3329C11.7457 37.6058 12.746 38.379 14.3524 38.379Z" fill="#000000"/>
</g>
<defs>
<clipPath id="clip0_7_43">
<rect width="47.2706" height="36.4796" fill="#000000" transform="translate(0 1.92944)"/>
</clipPath>
</defs>
</svg>